<?xml version="1.0" standalone="no"?>
<!DOCTYPE svg PUBLIC "-//W3C//DTD SVG 1.1//EN" "http://www.w3.org/Graphics/SVG/1.1/DTD/svg11.dtd" >
<svg>
<metadata>
Created by FontForge 20120731 at Fri Oct 10 14:02:33 2014
 By World Wide Web Server
Copyright (c) 1992, 1997 DoubleAlex Design Studio. All rights reserved.
</metadata>
<defs>
<font id="HelveticaCYOblique" horiz-adv-x="934" >
  <font-face 
    font-family="Helvetica CY"
    font-weight="400"
    font-style="oblique"
    font-stretch="normal"
    units-per-em="2048"
    panose-1="0 0 4 0 0 0 0 0 0 0"
    ascent="1638"
    descent="-410"
    x-height="1075"
    cap-height="1493"
    bbox="-284 -451 1931 1886"
    underline-thickness="155"
    underline-position="5"
    slope="-11"
    unicode-range="U+0020-2265"
  />
<missing-glyph horiz-adv-x="1024" 
d="M128 0v1493h768v-1493h-768zM256 128h512v1237h-512v-1237z" />
    <glyph glyph-name=".notdef" horiz-adv-x="1024" 
d="M128 0v1493h768v-1493h-768zM256 128h512v1237h-512v-1237z" />
    <glyph glyph-name=".null" horiz-adv-x="0" 
 />
    <glyph glyph-name="nonmarkingreturn" horiz-adv-x="467" 
 />
    <glyph glyph-name="space" unicode=" " horiz-adv-x="467" 
 />
    <glyph glyph-name="exclam" unicode="!" horiz-adv-x="467" 
d="M141 0h-141l45 213h142zM317 1493h142l-105 -490q-9 -67 -52 -245l-125 -416h-69l53 416q14 66 52 245z" />
    <glyph glyph-name="quotedbl" unicode="&#x22;" horiz-adv-x="596" 
d="M510 946h-67l9 184q1 25 4 93q5 20 17 75l32 152h158l-33 -152q-4 -20 -16 -75q-9 -25 -34 -93zM244 946h-67l9 184q1 25 4 93q4 20 16 75l33 152h157l-32 -152q-4 -20 -16 -75q-3 -7 -35 -93z" />
    <glyph glyph-name="numbersign" unicode="#" 
d="M515 594l112 313h-207l-112 -313h207zM477 1073l207 -2l144 400h133l-144 -398h156l-35 -166h-180l-112 -313h168l-35 -164h-197l-154 -430h-127l152 430h-206l-157 -430h-127l152 430h-167l34 164h195l112 313h-177l36 166h198l146 398h129z" />
    <glyph glyph-name="dollar" unicode="$" 
d="M658 447q0 132 -171 198l-119 -563q128 31 209 132.5t81 232.5zM273 1019q0 -75 38 -130q41 -58 112 -74l112 524q-100 -2 -184 -113q-78 -104 -78 -207zM652 1339q-9 0 -18 -2l-114 -538q136 -54 200 -112q91 -83 91 -208q0 -215 -127 -361q-131 -151 -343 -161
l-45 -213h-101l45 209q-39 8 -116 33q-155 66 -155 273q0 75 19 167h129q-12 -107 -12 -138q0 -167 162 -208l124 584q-256 109 -256 327q0 191 118 321t309 156l23 109h100l-23 -111q123 -10 189.5 -85.5t66.5 -199.5q0 -62 -14 -116h-135q6 38 6 78q0 196 -123 196z" />
    <glyph glyph-name="percent" unicode="%" horiz-adv-x="1493" 
d="M1239 366q0 66 -30 114q-35 57 -98 57q-88 0 -159 -100q-65 -92 -65 -184q0 -65 31 -114q35 -57 97 -57q88 0 159 100q65 92 65 184zM578 1109q0 66 -30 114q-35 57 -98 57q-88 0 -159 -100q-65 -92 -65 -184q0 -66 30 -114q35 -57 98 -57q88 0 159 100q65 92 65 184z
M989 -41q-105 0 -166 81q-56 74 -56 182q0 154 107 291q114 146 264 146q104 0 165 -81q56 -74 56 -181q0 -155 -106 -291q-114 -147 -264 -147zM327 702q-104 0 -165 82q-56 74 -56 181q0 155 106 291q114 147 264 147q105 0 167 -81q55 -74 55 -182q0 -153 -107 -291
q-114 -147 -264 -147zM305 -41h-113l980 1491h113z" />
    <glyph glyph-name="ampersand" unicode="&#x26;" horiz-adv-x="1120" 
d="M306 100q82 0 165 59q34 24 135 117l-184 410q-142 -99 -191 -153q-89 -98 -89 -222q0 -84 39 -143q45 -68 125 -68zM503 881q94 39 162 124q72 91 72 188q0 138 -108 138q-84 0 -139 -92q-48 -80 -48 -169q0 -74 61 -189zM655 152q-143 -125 -169 -142q-89 -57 -210 -57
q-129 0 -209 104q-74 95 -74 227q0 189 107 310q49 56 266 213q-65 166 -65 245q0 153 104 275q110 127 260 127q100 0 160 -73q56 -69 56 -171q0 -104 -64 -208q-60 -95 -152 -158l-103 -70l148 -332q89 151 105 240h135q-28 -161 -177 -371l138 -311h-184z" />
    <glyph glyph-name="quotesingle" unicode="'" horiz-adv-x="322" 
d="M236 946h-68l9 184q1 25 5 93q7 31 16 75l32 152h158l-32 -152q-4 -20 -16 -75q-3 -7 -35 -93z" />
    <glyph glyph-name="parenleft" unicode="(" horiz-adv-x="559" 
d="M171 83q0 -275 68 -519h-94q-105 257 -105 598q0 192 37 366q52 243 185 509q129 259 293 456h94q-478 -679 -478 -1410z" />
    <glyph glyph-name="parenright" unicode=")" horiz-adv-x="559" 
d="M-93 -436h-94q478 679 478 1409q0 276 -68 520h94q105 -257 105 -598q0 -191 -37 -367q-51 -241 -185 -508q-130 -260 -293 -456z" />
    <glyph glyph-name="asterisk" unicode="*" horiz-adv-x="653" 
d="M392 1286l41 230h104l-55 -230l190 76l8 -127l-191 -53l73 -185l-97 -71l-64 190l-149 -188l-66 73l155 181l-166 63l56 121z" />
    <glyph glyph-name="plus" unicode="+" horiz-adv-x="981" 
d="M498 547h348v-117h-348v-348h-117v348h-348v117h348v348h117v-348z" />
    <glyph glyph-name="comma" unicode="," horiz-adv-x="467" 
d="M-78 -307l20 94q116 64 148 213h-100l45 213h174l-45 -213q-20 -94 -84 -186q-74 -106 -158 -121z" />
    <glyph glyph-name="hyphen" unicode="-" horiz-adv-x="559" 
d="M29 512l27 129h400l-28 -129h-399z" />
    <glyph glyph-name="hyphen" unicode="&#x2010;" horiz-adv-x="559" 
d="M29 512l27 129h400l-28 -129h-399z" />
    <glyph glyph-name="period" unicode="." horiz-adv-x="467" 
d="M209 213l-45 -213h-176l45 213h176z" />
    <glyph glyph-name="slash" unicode="/" horiz-adv-x="467" 
d="M628 1450l-715 -1493h-94l717 1493h92z" />
    <glyph glyph-name="zero" unicode="0" 
d="M742 1036q0 260 -163 260q-244 0 -371 -598q-45 -211 -45 -338q0 -260 161 -260q246 0 373 598q45 212 45 338zM612 1452q199 0 258 -213q17 -62 17 -163q0 -208 -67 -473q-72 -285 -179 -437q-150 -213 -348 -213q-197 0 -256 213q-17 62 -17 163q0 207 67 472
q73 289 178 438q150 213 347 213z" />
    <glyph glyph-name="one" unicode="1" 
d="M509 1057h-270l23 106q183 33 238 76t134 213h101l-309 -1452h-141z" />
    <glyph glyph-name="two" unicode="2" 
d="M91 158h633l-34 -158h-790q72 249 146 357q88 129 295 255l202 123q188 114 229 303q8 37 8 78q0 86 -46 141.5t-131 55.5q-136 0 -227 -119q-73 -95 -105 -246h-143q107 504 504 504q142 0 222 -87q77 -85 77 -228q0 -52 -12 -109q-41 -195 -210 -337q-59 -49 -341 -220
q-81 -49 -165 -137q-97 -102 -112 -176z" />
    <glyph glyph-name="three" unicode="3" 
d="M287 96q278 0 344 328q9 45 9 76q0 183 -220 183q-30 0 -62 -3l28 133q158 0 229 47q82 54 113 203q7 34 7 68q0 82 -47 131t-129 49q-116 0 -196 -110q-63 -87 -91 -218h-141q106 469 464 469q140 0 219 -74t79 -213q0 -129 -54 -239q-60 -123 -166 -176
q120 -74 120 -219q0 -222 -141 -394q-150 -184 -367 -184q-316 0 -316 322q0 70 16 147h142q-14 -63 -14 -120q0 -206 174 -206z" />
    <glyph glyph-name="four" unicode="4" 
d="M131 512h379l138 649zM3 535l738 917h110l-199 -940h172l-31 -143h-172l-78 -369h-142l79 369h-512z" />
    <glyph glyph-name="five" unicode="5" 
d="M339 1452h615l-34 -160h-494l-141 -422q102 86 230 86q144 0 230 -118q77 -106 77 -255q0 -232 -144 -422q-157 -208 -385 -208q-321 0 -321 329q0 40 5 74h152q-3 -31 -3 -56q0 -196 201 -196q149 0 247 174q83 147 83 308q0 223 -190 223q-89 0 -147 -42
q-22 -16 -108 -108h-133z" />
    <glyph glyph-name="six" unicode="6" 
d="M478 766q-136 0 -236 -151q-89 -135 -89 -279q0 -96 41 -164q49 -82 138 -82q114 0 208 113q80 97 107 219q14 64 14 121q0 223 -183 223zM610 1307q-98 0 -197 -113q-142 -162 -194 -403q-8 -37 -8 -53v-5q124 172 317 172q142 0 218 -109q67 -95 67 -243
q0 -227 -131 -405q-143 -195 -362 -195q-312 0 -312 362q0 160 43 364.5t107 350.5q76 172 190 284q141 138 303 138q122 0 195 -95q68 -87 68 -212q0 -35 -6 -72h-145q5 28 5 55q0 75 -41 125q-44 54 -117 54z" />
    <glyph glyph-name="seven" unicode="7" 
d="M1023 1452l-32 -154l-181 -231q-382 -488 -579 -1067h-159q86 207 182 408q64 133 189 319l399 573h-645l32 152h794z" />
    <glyph glyph-name="eight" unicode="8" 
d="M135 319q0 -93 44 -153q50 -68 139 -68q135 0 234 127q92 118 92 257q0 94 -48 154q-52 66 -144 66q-136 0 -230 -126q-87 -116 -87 -257zM315 996q0 -80 42 -129q44 -52 123 -52q111 0 192 104q76 98 76 212q0 78 -41 128q-44 54 -121 54q-116 0 -196 -102
q-75 -96 -75 -215zM675 766q63 -23 97 -122q27 -78 27 -161q0 -203 -149 -365q-152 -165 -353 -165q-148 0 -236 101q-85 97 -85 247q0 292 284 461q-97 82 -97 219q0 187 128 327q132 144 317 144q136 0 214.5 -79.5t78.5 -215.5q0 -258 -226 -391z" />
    <glyph glyph-name="nine" unicode="9" 
d="M420 629q144 0 244 143q91 130 91 280q0 105 -38 173q-47 84 -144 84q-147 0 -243 -162q-84 -141 -84 -300q0 -218 174 -218zM696 662q-53 -71 -133 -118q-86 -50 -169 -50q-145 0 -226 101q-75 93 -75 242q0 227 140 413q152 202 375 202q281 0 281 -394
q0 -346 -135 -681q-171 -424 -453 -424q-312 0 -312 281q0 43 10 88h145q-6 -31 -6 -59q0 -165 161 -165q197 0 347 377q50 126 50 187z" />
    <glyph glyph-name="colon" unicode=":" horiz-adv-x="467" 
d="M195 213l-45 -213h-175l46 213h174zM378 1075l-45 -213h-174l45 213h174z" />
    <glyph glyph-name="semicolon" unicode=";" horiz-adv-x="467" 
d="M381 1075l-45 -213h-174l45 213h174zM-84 -307l20 94q112 64 148 213h-101l46 213h174l-46 -213q-21 -97 -83 -186q-74 -106 -158 -121z" />
    <glyph glyph-name="less" unicode="&#x3c;" horiz-adv-x="981" 
d="M127 475l664 -332v-163l-822 423v144l822 424v-164z" />
    <glyph glyph-name="equal" unicode="=" horiz-adv-x="981" 
d="M846 256h-813v117h813v-117zM846 604h-813v117h813v-117z" />
    <glyph glyph-name="greater" unicode="&#x3e;" horiz-adv-x="981" 
d="M49 -20v163l658 332l-658 332v164l821 -424v-144z" />
    <glyph glyph-name="question" unicode="?" 
d="M444 213l-45 -213h-154l46 213h153zM790 1194q0 77 -40 127q-43 55 -118 55q-135 0 -209 -112q-49 -74 -87 -232h-146q41 205 145 331q125 150 317 150q138 0 217 -77t79 -215q0 -167 -88 -292q-48 -69 -217 -222q-116 -105 -139 -211q-5 -27 -20 -97h-154l27 123
q25 115 123 214q61 58 181 175q97 99 122 219q7 34 7 64z" />
    <glyph glyph-name="at" unicode="@" horiz-adv-x="1704" 
d="M620 493q0 -84 41 -157q49 -87 125 -87q119 0 198 198q64 160 64 300q0 171 -155 171q-126 0 -206 -156q-67 -130 -67 -269zM1192 252q130 0 223 184q78 155 78 298q0 247 -178 432q-181 188 -426 188q-277 0 -476 -265q-184 -245 -184 -531q0 -279 166 -486
q178 -222 447 -222q130 0 336 76l49 -137q-196 -89 -383 -89q-333 0 -552 252q-210 242 -210 585q0 361 230 656q247 316 599 316q299 0 508 -229q204 -223 204 -524q0 -226 -112 -419q-132 -227 -341 -227q-177 0 -191 154q-114 -145 -242 -145q-127 0 -204 126
q-66 108 -66 244q0 196 115 376q130 203 317 203q72 0 132 -55.5t75 -127.5l37 135h139l-162 -612q-10 -38 -10 -64q0 -38 22.5 -65t59.5 -27z" />
    <glyph glyph-name="A" unicode="A" horiz-adv-x="1120" 
d="M721 606l-42 654l-339 -654h381zM-129 0l762 1493h192l113 -1493h-176l-30 459h-460l-233 -459h-168z" />
    <glyph glyph-name="B" unicode="B" horiz-adv-x="1120" 
d="M558 150q118 0 203 125q76 112 76 237q0 190 -247 190h-308l-117 -552h393zM638 852q130 0 208 93q73 88 73 220q0 85 -55 133q-51 45 -138 45h-307l-105 -491h324zM293 1493h481q139 0 224.5 -88.5t85.5 -228.5q0 -123 -64.5 -228t-173.5 -157q68 -33 101 -83
q47 -72 47 -206q0 -174 -110 -328q-124 -174 -306 -174h-603z" />
    <glyph glyph-name="C" unicode="C" horiz-adv-x="1212" 
d="M755 1366q-249 0 -409 -324q-132 -268 -132 -547q0 -391 273 -391q153 0 282 152q98 115 164 291h162q-98 -277 -274 -441q-71 -67 -175 -110t-199 -43q-210 0 -312 165q-84 136 -84 359q0 353 185 671q215 370 543 370q88 0 174 -41q91 -43 136 -113q78 -119 87 -332
h-164q-33 334 -257 334z" />
    <glyph glyph-name="D" unicode="D" horiz-adv-x="1212" 
d="M181 150h342q213 0 357 333q117 271 117 513q0 145 -57 237q-69 110 -206 110h-299zM309 1493h471q193 0 291 -145q84 -124 84 -325q0 -288 -134 -578q-81 -175 -201 -294q-152 -151 -312 -151h-516z" />
    <glyph glyph-name="E" unicode="E" horiz-adv-x="1120" 
d="M1161 1493l-32 -150h-692l-104 -491h665l-32 -150h-665l-118 -552h721l-32 -150h-878l317 1493h850z" />
    <glyph glyph-name="F" unicode="F" horiz-adv-x="1026" 
d="M1132 1493l-31 -150h-664l-104 -491h581l-32 -150h-581l-149 -702h-158l317 1493h821z" />
    <glyph glyph-name="G" unicode="G" horiz-adv-x="1307" 
d="M1201 793l-168 -793h-101l1 176q-131 -115 -211 -159q-117 -64 -255 -64q-218 0 -328 165q-94 140 -94 369q0 366 206 678q233 353 580 353q412 0 412 -406q0 -35 -3 -70h-156q3 18 3 37q0 125 -81.5 206t-206.5 81q-272 0 -445 -302q-147 -256 -147 -548q0 -174 72 -283
q85 -129 251 -129q178 0 317 147q125 132 165 316q4 21 16 76h-373l32 150h514z" />
    <glyph glyph-name="H" unicode="H" horiz-adv-x="1212" 
d="M289 702l-150 -702h-157l317 1493h158l-137 -641h627l136 641h158l-317 -1493h-158l149 702h-626z" />
    <glyph glyph-name="I" unicode="I" horiz-adv-x="467" 
d="M485 1493l-317 -1493h-158l318 1493h157z" />
    <glyph glyph-name="J" unicode="J" horiz-adv-x="840" 
d="M88 253q0 -65 37.5 -107t101.5 -42q124 0 194 124q43 76 77 235l219 1030h157l-242 -1141q-35 -164 -134 -274q-113 -125 -266 -125q-137 0 -217 67q-86 72 -86 206q0 47 43 249h158q-42 -196 -42 -222z" />
    <glyph glyph-name="K" unicode="K" horiz-adv-x="1120" 
d="M131 0h-158l317 1493h158l-136 -641h94l650 641l186 -1l-725 -721l421 -771h-179l-379 702h-100z" />
    <glyph glyph-name="L" unicode="L" 
d="M167 150h602l-32 -150h-760l318 1493h158z" />
    <glyph glyph-name="M" unicode="M" horiz-adv-x="1399" 
d="M387 1212l-258 -1212h-162l318 1493h225l82 -1270l622 1270h224l-318 -1493h-162l258 1212l-591 -1212h-162z" />
    <glyph glyph-name="N" unicode="N" horiz-adv-x="1212" 
d="M388 1229l-261 -1229h-158l318 1493h186l352 -1238l262 1238h158l-317 -1493h-180z" />
    <glyph glyph-name="O" unicode="O" horiz-adv-x="1307" 
d="M199 526q0 -181 68 -290q82 -132 253 -132q264 0 438 301q149 258 149 544q0 179 -68 287q-82 130 -251 130q-264 0 -439 -299q-150 -257 -150 -541zM487 -47q-229 0 -348 174q-104 151 -104 390q0 360 207 662q232 339 578 339q228 0 347 -174q102 -150 102 -391
q0 -360 -206 -662q-230 -338 -576 -338z" />
    <glyph glyph-name="P" unicode="P" horiz-adv-x="1120" 
d="M721 782q114 0 179 129q53 105 53 230q0 78 -41 136q-46 66 -121 66h-352l-119 -561h401zM825 1493q141 0 220 -83q76 -81 76 -223q0 -228 -98 -378q-115 -176 -331 -176h-404l-134 -633h-158l317 1493h512z" />
    <glyph glyph-name="Q" unicode="Q" horiz-adv-x="1307" 
d="M743 401l112 -137q114 118 185 320q67 189 67 365q0 179 -68 287q-82 130 -251 130q-264 0 -439 -299q-150 -257 -150 -541q0 -180 68 -290q83 -132 253 -132q82 0 217 70l-103 131zM964 -106l-135 161q-181 -102 -341 -102q-229 0 -349 174q-104 151 -104 390
q0 360 207 662q232 339 578 339q229 0 348 -175q102 -150 102 -390q0 -216 -85.5 -430t-235.5 -367l124 -156z" />
    <glyph glyph-name="R" unicode="R" horiz-adv-x="1212" 
d="M999 0h-172l-253 641h-285l-136 -641h-157l317 1493h549q148 0 232 -77q87 -80 87 -227q0 -215 -113 -357q-117 -144 -327 -179zM1015 1165q0 178 -183 178h-394l-117 -552h396q135 0 221 123q77 111 77 251z" />
    <glyph glyph-name="S" unicode="S" horiz-adv-x="1120" 
d="M670 1368q-129 0 -227 -92q-101 -94 -101 -222q0 -135 173 -194l294 -100q85 -29 133 -117q42 -78 42 -175q0 -227 -168 -374q-160 -141 -390 -141q-189 0 -299 87q-122 96 -122 280q0 72 18 153h147q-12 -59 -12 -112q0 -255 272 -255q154 0 266 95q118 100 118 251
q0 119 -101 169q-59 29 -155 60q-71 23 -159 52q-217 83 -217 295q0 224 148 359q143 131 369 131q388 0 388 -337q0 -65 -17 -124h-153q13 49 13 90q0 109 -78 168q-70 53 -182 53z" />
    <glyph glyph-name="T" unicode="T" horiz-adv-x="1026" 
d="M163 1343l31 150h961l-32 -150h-399l-286 -1343h-157l285 1343h-403z" />
    <glyph glyph-name="U" unicode="U" horiz-adv-x="1212" 
d="M224 346q0 -116 68 -179t185 -63q140 0 245 87t134 225l229 1077h158l-229 -1077q-43 -202 -192 -331q-153 -132 -357 -132q-178 0 -286 92q-115 98 -115 273q0 51 10 98l229 1077h158l-229 -1077q-8 -38 -8 -70z" />
    <glyph glyph-name="V" unicode="V" horiz-adv-x="1120" 
d="M1243 1493l-747 -1493h-170l-115 1493h168l85 -1264l611 1264h168z" />
    <glyph glyph-name="W" unicode="W" horiz-adv-x="1585" 
d="M1720 1493l-630 -1493h-172l-22 1217l-536 -1217h-172l9 1493h174l-29 -1202l530 1202h168l17 -1202l487 1202h176z" />
    <glyph glyph-name="X" unicode="X" horiz-adv-x="1120" 
d="M922 0h-185l-196 608l-467 -608h-195l593 766l-245 727h181l191 -581l441 581h193l-572 -737z" />
    <glyph glyph-name="Y" unicode="Y" horiz-adv-x="1120" 
d="M563 768l502 725h205l-654 -909l-124 -584h-160l124 584l-274 909h181z" />
    <glyph glyph-name="Z" unicode="Z" horiz-adv-x="1026" 
d="M1137 1493l-37 -174l-992 -1169h745l-32 -150h-932l35 164l996 1179h-694l32 150h879z" />
    <glyph glyph-name="bracketleft" unicode="[" horiz-adv-x="467" 
d="M547 1339h-170l-345 -1624h170l-33 -153h-311l410 1931h311z" />
    <glyph glyph-name="backslash" unicode="\" horiz-adv-x="467" 
d="M100 1493l398 -1534h-92l-400 1534h94zM498 -41z" />
    <glyph glyph-name="bracketright" unicode="]" horiz-adv-x="467" 
d="M510 1493l-411 -1933h-311l32 153h170l346 1626h-170l33 154h311z" />
    <glyph glyph-name="asciicircum" unicode="^" horiz-adv-x="788" 
d="M465 1460l258 -778h-117l-203 606l-202 -606h-117l258 778h123z" />
    <glyph glyph-name="underscore" unicode="_" 
d="M-195 -358v102h1008v-102h-1008z" />
    <glyph glyph-name="grave" unicode="`" horiz-adv-x="559" 
d="M385 1212l-184 304h189l97 -304h-102z" />
    <glyph glyph-name="a" unicode="a" 
d="M110 221q0 -60 33 -99q35 -42 93 -42q162 0 281 144q35 42 40 67l55 256q-58 -25 -196 -49q-118 -21 -156 -37q-70 -30 -111 -107q-39 -72 -39 -133zM758 80l-23 -109l-122 -18q-92 30 -92 131q0 12 2 25q-199 -156 -328 -156q-236 0 -236 217q0 141 63 244
q69 112 197 155q67 23 174 36q112 14 165 28q73 19 87 82q28 123 28 134q0 126 -185 126q-95 0 -161 -65q-60 -59 -81 -156h-133l11 53q28 133 150 219q115 80 256 80q110 0 194 -40q108 -51 108 -149q0 -17 -4 -36l-157 -742q-1 -5 -1 -10q0 -54 61 -54q14 0 27 5z" />
    <glyph glyph-name="b" unicode="b" 
d="M532 973q-134 0 -236 -166q-76 -123 -111 -285q-21 -97 -21 -183q0 -255 177 -255q157 0 267 247q91 205 91 385q0 101 -33 168q-43 89 -134 89zM275 946q52 71 135.5 115.5t170.5 44.5q139 0 215 -128q64 -107 64 -259q0 -265 -137 -497q-159 -269 -403 -269
q-160 0 -239 166l-26 -119h-123l318 1493h141z" />
    <glyph glyph-name="c" unicode="c" horiz-adv-x="840" 
d="M254 -47q-144 0 -214 110q-58 91 -58 246q0 111 27 236q46 214 169 372q147 189 344 189q283 0 283 -286q0 -51 -10 -107h-140q6 35 6 67q0 195 -165 195q-123 0 -224 -162q-78 -125 -111 -278q-24 -111 -24 -201q0 -250 170 -250q178 0 280 287h135q-45 -183 -161 -295
q-127 -123 -307 -123z" />
    <glyph glyph-name="d" unicode="d" 
d="M665 705q0 102 -37 176q-47 94 -140 94q-126 0 -224 -165q-73 -122 -106 -278q-20 -93 -20 -183q0 -265 162 -265q168 0 277 236q88 191 88 385zM674 0h-123l26 123q-123 -170 -308 -170q-292 0 -292 365q0 106 25 223q46 216 159 371q141 194 334 194q192 0 238 -162
l117 549h141z" />
    <glyph glyph-name="e" unicode="e" 
d="M521 977q-216 0 -330 -356h492q15 69 15 129q0 227 -177 227zM325 84q101 0 177 78q48 49 110 166h144q-142 -375 -457 -375q-303 0 -303 353q0 280 138 519q162 281 423 281q286 0 286 -358q0 -128 -34 -259h-646q-21 -95 -21 -145q0 -104 39 -174q48 -86 144 -86z" />
    <glyph glyph-name="f" unicode="f" horiz-adv-x="467" 
d="M74 944l28 131h118l39 182q22 102 87 169q72 74 171 74q37 0 76 -9l-24 -117q-27 4 -47 4q-96 0 -121 -118l-39 -185h141l-28 -131h-141l-201 -944h-141l200 944h-118z" />
    <glyph glyph-name="g" unicode="g" 
d="M494 975q-169 0 -276 -248q-85 -197 -85 -392q0 -251 161 -251q174 0 279 243q83 192 83 393q0 255 -162 255zM162 -451q-125 0 -198 71t-73 196q0 30 5 61h141q-2 -15 -2 -31q0 -172 166 -172q253 0 349 455q-130 -168 -308 -168q-137 0 -206 120q-56 97 -56 245
q0 258 132 498q155 282 393 282q179 0 218 -162l28 131h141l-190 -893q-64 -302 -151 -433q-132 -200 -389 -200z" />
    <glyph glyph-name="h" unicode="h" 
d="M418 1493l-117 -547q146 160 305 160q104 0 167 -54q67 -57 67 -159q0 -34 -9 -76l-174 -817h-139l159 748q7 33 7 64q0 64 -32 110q-36 53 -97 53q-104 0 -196 -88q-88 -84 -110 -189l-149 -698h-141l317 1493h142z" />
    <glyph glyph-name="i" unicode="i" horiz-adv-x="373" 
d="M225 1280l45 213h142l-46 -213h-141zM-47 0l228 1075h142l-229 -1075h-141z" />
    <glyph glyph-name="j" unicode="j" horiz-adv-x="373" 
d="M188 1075h141l-279 -1311q-22 -105 -105 -162q-76 -52 -187 -52q-21 0 -42 1l27 125q85 10 106 19q50 21 63 82zM418 1493l-46 -213h-141l45 213h142z" />
    <glyph glyph-name="k" unicode="k" horiz-adv-x="840" 
d="M78 0h-140l317 1493h140l-185 -872h63l420 454h159l-466 -509l288 -566h-148l-250 489h-94z" />
    <glyph glyph-name="l" unicode="l" horiz-adv-x="373" 
d="M416 1493l-318 -1493h-141l317 1493h142z" />
    <glyph glyph-name="m" unicode="m" horiz-adv-x="1399" 
d="M331 1075l-29 -137q109 168 296 168q81 0 135 -41q58 -43 68 -121q119 162 302 162q209 0 209 -185q0 -39 -9 -81l-179 -840h-141l173 813q4 19 4 39q0 123 -140 123q-90 0 -161 -72q-66 -66 -86 -158l-159 -745h-141l168 788q6 28 6 56q0 131 -131 131q-94 0 -171 -84
q-69 -76 -90 -174l-153 -717h-141l229 1075h141z" />
    <glyph glyph-name="n" unicode="n" 
d="M300 940q109 166 312 166q104 0 165 -53q65 -56 65 -159q0 -37 -9 -79l-174 -815h-141l164 772q7 33 7 60q0 143 -140 143q-131 0 -221 -129q-69 -99 -101 -250l-127 -596h-141l229 1075h141z" />
    <glyph glyph-name="o" unicode="o" 
d="M685 690q0 111 -34 185q-45 100 -143 100q-169 0 -277 -231q-89 -190 -89 -380q0 -280 177 -280q159 0 271 227q95 193 95 379zM536 1106q156 0 234 -115q66 -98 66 -262q0 -280 -131 -507q-155 -269 -414 -269q-157 0 -234 115q-66 99 -66 263q0 277 131 505
q155 270 414 270z" />
    <glyph glyph-name="p" unicode="p" 
d="M169 360q0 -258 174 -258q166 0 270 232q84 187 84 376q0 265 -174 265q-119 0 -220 -153q-80 -121 -110 -263q-24 -112 -24 -199zM161 1075h123l-29 -135q123 166 308 166q155 0 230 -126q62 -102 62 -267q0 -261 -130 -491q-152 -269 -389 -269q-190 0 -238 162
l-120 -564h-141z" />
    <glyph glyph-name="q" unicode="q" 
d="M304 102q134 0 237 165q77 123 111 284q18 84 18 164q0 260 -180 260q-155 0 -264 -240q-91 -200 -91 -376q0 -100 34 -169q44 -88 135 -88zM557 115q-115 -162 -307 -162q-140 0 -214 126q-61 104 -61 258q0 264 134 496q158 273 405 273q189 0 237 -166l28 135h123
l-324 -1524h-141z" />
    <glyph glyph-name="r" unicode="r" horiz-adv-x="559" 
d="M329 1075l-36 -168q45 68 106 124q81 75 139 75h78l-34 -160q-280 0 -358 -366l-124 -580h-141l229 1075h141z" />
    <glyph glyph-name="s" unicode="s" horiz-adv-x="840" 
d="M273 78q111 0 184 60q79 64 79 172q0 90 -67 114q-172 61 -272 108q-119 56 -119 208q0 171 119 271q112 95 286 95q267 0 267 -234q0 -45 -10 -98h-139q8 36 8 65q0 136 -166 136q-82 0 -151.5 -67.5t-69.5 -148.5q0 -96 120 -142q49 -19 222 -81q119 -64 119 -197
q0 -178 -119 -285q-115 -103 -294 -103q-317 0 -317 247q0 53 14 119h133q-3 -24 -3 -48q0 -191 176 -191z" />
    <glyph glyph-name="t" unicode="t" horiz-adv-x="467" 
d="M497 1075l-28 -131h-139l-170 -797q-2 -9 -2 -18q0 -45 63 -45q27 0 67 8l-27 -125q-72 -15 -112 -15q-143 0 -143 119q0 16 4 35l178 838h-122l27 131h123l62 291h141l-61 -291h139z" />
    <glyph glyph-name="u" unicode="u" 
d="M534 115q-124 -162 -313 -162q-222 0 -222 216q0 58 17 138l163 768h142l-168 -788q-7 -33 -7 -63q0 -140 132 -140q120 0 212 106q80 92 107 220l141 665h142l-229 -1075h-141z" />
    <glyph glyph-name="v" unicode="v" horiz-adv-x="840" 
d="M87 1075h148l44 -870l439 870h168l-564 -1075h-154z" />
    <glyph glyph-name="w" unicode="w" horiz-adv-x="1212" 
d="M234 1075l-4 -837l348 837h174l-14 -835l360 835h163l-489 -1075h-160l-4 817l-344 -817h-160l-23 1075h153z" />
    <glyph glyph-name="x" unicode="x" horiz-adv-x="840" 
d="M-129 0l426 551l-179 524h150l135 -387l301 387h157l-417 -530l183 -545h-148l-138 401l-310 -401h-160z" />
    <glyph glyph-name="y" unicode="y" horiz-adv-x="840" 
d="M-82 -449q-49 0 -77 27l27 129q37 -19 73 -19q66 0 132 126l89 170l-58 1091h149l43 -828l426 828h152l-681 -1323q-103 -201 -275 -201z" />
    <glyph glyph-name="z" unicode="z" horiz-adv-x="840" 
d="M91 131h547l-28 -131h-716l30 141l707 805h-500l28 129h659l-31 -149z" />
    <glyph glyph-name="braceleft" unicode="{" horiz-adv-x="561" 
d="M623 1497l-28 -135l-76 -10q-62 -8 -88 -131l-77 -363q-45 -211 -190 -330q65 -80 65 -205q0 -56 -14 -122l-77 -363q-11 -52 -11 -76q0 -51 42 -57q20 -3 71 -10l-28 -133l-122 6q-43 2 -71 69q-22 53 -22 103q0 35 9 76l76 350q22 101 22 157q0 111 -93 136l31 141
q92 22 140 113q29 56 55 180l72 350q31 150 142 227q29 20 48 21z" />
    <glyph glyph-name="bar" unicode="|" horiz-adv-x="436" 
d="M178 -440v1933h101v-1933h-101z" />
    <glyph glyph-name="braceright" unicode="}" horiz-adv-x="561" 
d="M-202 -438l29 135l76 10q61 8 87 131l77 363q47 221 193 327q-67 83 -67 208q0 56 14 122l77 363q10 47 10 75q0 50 -42 56q-19 3 -71 10l29 135l121 -6q44 -2 72 -69q21 -51 21 -103q0 -40 -8 -76l-77 -350q-22 -100 -22 -158q0 -111 93 -135l-30 -141
q-93 -22 -140 -113q-29 -56 -55 -180l-73 -350q-32 -152 -141 -227q-29 -20 -49 -21z" />
    <glyph glyph-name="asciitilde" unicode="~" horiz-adv-x="981" 
d="M294 897q50 0 87 -27l219 -161q31 -23 65 -23q88 0 88 124q0 16 -1 32h88q1 -15 1 -29q0 -91 -44 -172q-53 -97 -135 -97q-60 0 -130 54l-180 139q-38 29 -59 29q-49 0 -73 -64q-20 -53 -15 -106h-90q7 301 179 301z" />
    <glyph glyph-name="dagger" unicode="&#x2020;" 
d="M538 1454h164l-90 -424h311l-36 -170h-311l-260 -1225h-164l260 1225h-323l36 170h323z" />
    <glyph glyph-name="degree" unicode="&#xb0;" horiz-adv-x="672" 
d="M229 1145q0 -86 49 -152q53 -73 136 -73q82 0 136 73q48 67 48 152t-49 152q-55 73 -137 73t-135 -73q-48 -67 -48 -152zM162 1145q0 118 66 208q72 99 186 99q112 0 185 -100q67 -91 67 -207t-66 -207q-74 -100 -186 -100q-114 0 -186 99q-66 90 -66 208z" />
    <glyph glyph-name="sterling" unicode="&#xa3;" 
d="M598 655h-235v-28q1 -39 1 -29q0 -125 -99 -261q-53 -73 -193 -212q108 60 227 60q47 0 136 -31t129 -31q43 0 156 67l36 -120q-112 -114 -244 -114q-64 0 -174.5 47t-161.5 47q-67 0 -204 -77l-51 136q302 248 302 453q0 34 -14 93h-184l24 113h141q-45 130 -45 190
q0 225 135 374q139 155 361 155q296 0 296 -300q0 -73 -17 -171h-147q11 77 11 128q0 197 -170 197q-127 0 -218 -115q-85 -107 -85 -237q0 -73 43 -221h268z" />
    <glyph glyph-name="section" unicode="&#xa7;" 
d="M188 616q0 -71 72 -165q40 -52 224 -234q68 33 117 111.5t49 153.5q0 96 -62 163t-224 240q-89 -67 -124 -112q-52 -68 -52 -157zM219 -296q85 0 150 76q61 72 61 159q0 67 -42 119q-5 7 -91 87q-97 91 -168 162q-89 89 -89 226q0 150 66 249q58 87 195 170
q-42 54 -42 151q0 161 109.5 275.5t269.5 114.5q241 0 241 -253q0 -83 -28 -167h-140q22 81 22 121q0 163 -126 163q-93 0 -148 -69q-50 -63 -50 -159q0 -65 102 -152q54 -45 192 -166q99 -90 99 -246q0 -128 -67 -251q-76 -140 -192 -167q44 -101 44 -163q0 -192 -104 -306
q-108 -118 -298 -118q-117 0 -183 83q-61 76 -61 196q0 77 22 132h146q-15 -46 -15 -98q0 -169 125 -169z" />
    <glyph glyph-name="bullet" unicode="&#x2022;" horiz-adv-x="588" 
d="M88 707q0 99 55 165q59 70 156 70q95 0 154 -71q55 -67 55 -164t-55 -164q-59 -72 -154 -72q-96 0 -156 71q-55 67 -55 165z" />
    <glyph glyph-name="paragraph" unicode="&#xb6;" horiz-adv-x="901" 
d="M299 -365zM910 1360l-367 -1725h-108l366 1725h-135l-367 -1725h-110l190 893q-258 46 -258 384q0 196 136 380q148 201 343 201h436l-28 -133h-98z" />
    <glyph glyph-name="registered" unicode="&#xae;" horiz-adv-x="1638" 
d="M49 721q0 332 220 554t552 222q325 0 546.5 -220t221.5 -544q0 -325 -221.5 -546.5t-546.5 -221.5q-318 0 -545 219.5t-227 536.5zM188 748q0 -286 172 -475q178 -195 461 -195q275 0 454 191q175 187 175 464q0 276 -175 462q-179 189 -454 189q-268 0 -450.5 -184
t-182.5 -452zM522 285v895h346q314 0 314 -254q0 -211 -236 -246l256 -395h-149l-244 385h-147v-385h-140zM662 1067v-285h145q114 0 161 20q74 32 74 128q0 137 -196 137h-184z" />
    <glyph glyph-name="copyright" unicode="&#xa9;" horiz-adv-x="1638" 
d="M49 721q0 332 220 554t552 222q325 0 546.5 -220t221.5 -544q0 -325 -221.5 -546.5t-546.5 -221.5q-318 0 -545 219.5t-227 536.5zM188 748q0 -286 172 -475q178 -195 461 -195q275 0 454 191q175 187 175 464q0 274 -176 461q-180 190 -453 190q-267 0 -450 -184.5
t-183 -451.5zM1096 584h131q-35 -121 -82 -181q-110 -141 -307 -141q-202 0 -327 136q-120 131 -120 335q0 207 119 334q122 131 328 131q246 0 344 -182q28 -52 43 -129h-129q-51 198 -258 198q-147 0 -230 -102q-78 -94 -78 -244q0 -149 82 -252q88 -112 234 -112
q205 0 250 209z" />
    <glyph glyph-name="trademark" unicode="&#x2122;" horiz-adv-x="1679" 
d="M510 1395v-740h-123v740h-225v123h571v-123h-223zM1520 655v740l-246 -740h-66l-237 740v-740h-113v863h180l205 -609l209 609h178v-863h-110z" />
    <glyph glyph-name="notequal" unicode="&#x2260;" horiz-adv-x="981" 
d="M883 604h-273l-128 -231h401v-117h-466l-171 -307l-100 57l139 250h-215v117h279l129 231h-408v117h473l156 280l100 -57l-124 -223h208v-117z" />
    <glyph glyph-name="infinity" unicode="&#x221e;" horiz-adv-x="1460" 
d="M1273 534q0 75 -54.5 131t-129.5 56q-77 0 -174 -63q-47 -31 -150 -117q99 -96 141 -126q87 -62 174 -62q78 0 135.5 51.5t57.5 129.5zM315 353q86 0 174 62q44 31 141 126q-105 88 -149 117q-96 63 -175 63q-75 0 -129.5 -56t-54.5 -131q0 -77 58 -129t135 -52z
M1377 546q0 -115 -81 -203t-195 -88q-120 0 -223 67q-34 22 -180 151q-146 -128 -181 -151q-102 -67 -222 -67q-115 0 -197 89q-80 86 -80 202t86.5 199t203.5 83q100 0 212 -74q62 -41 178 -146q115 105 177 146q112 74 212 74q117 0 203.5 -83t86.5 -199z" />
    <glyph glyph-name="plusminus" unicode="&#xb1;" horiz-adv-x="981" 
d="M868 123v-123h-845v123h845zM504 801h348v-109h-348v-383h-117v383h-348v109h348v383h117v-383z" />
    <glyph glyph-name="lessequal" unicode="&#x2264;" horiz-adv-x="981" 
d="M897 133v-133h-821v133h821zM233 700l664 -331v-164l-821 424v143l821 424v-164z" />
    <glyph glyph-name="greaterequal" unicode="&#x2265;" horiz-adv-x="981" 
d="M897 629l-821 -424v164l663 331l-663 332v164l821 -424v-143zM897 0h-821v133h821v-133z" />
    <glyph glyph-name="mu" unicode="&#xb5;" 
d="M221 -47q-96 0 -134 24l-90 -426h-141l323 1524h142l-166 -780q-8 -38 -8 -68q0 -134 138 -134q245 0 325 378l128 604h142l-229 -1075h-141l24 115q-124 -162 -313 -162z" />
    <glyph glyph-name="mu" unicode="&#x3bc;" 
d="M221 -47q-96 0 -134 24l-90 -426h-141l323 1524h142l-166 -780q-8 -38 -8 -68q0 -134 138 -134q245 0 325 378l128 604h142l-229 -1075h-141l24 115q-124 -162 -313 -162z" />
    <glyph glyph-name="logicalnot" unicode="&#xac;" horiz-adv-x="981" 
d="M6 565v156h846v-553h-127v397h-719z" />
    <glyph glyph-name="radical" unicode="&#x221a;" horiz-adv-x="1124" 
d="M371 1069l403 -825l260 1634l72 -10l-307 -1946l-498 1028l-197 -96l-32 68z" />
    <glyph glyph-name="florin" unicode="&#x192;" 
d="M934 1519q71 0 132 -38l-82 -164q-55 41 -81 41q-93 0 -173 -170q-22 -46 -88 -238h187l-31 -143h-213l-279 -764q-77 -212 -159 -319q-124 -163 -297 -163q-54 0 -78 21l70 185q13 -39 73 -39q54 0 88 30q21 18 58 78.5t53 102.5l326 868h-189l31 143h213l80 221
q41 113 120 204q89 102 189 136q24 8 50 8z" />
    <glyph glyph-name="approxequal" unicode="&#x2248;" horiz-adv-x="981" 
d="M203 851q44 46 103 46q50 0 87 -27l219 -161q31 -23 65 -23q89 0 89 125q0 16 -2 31h88q1 -15 1 -29q0 -92 -43 -172q-52 -97 -136 -97q-59 0 -129 54l-180 139q-30 29 -59 29q-44 0 -70 -55q-20 -43 -20 -93q0 -11 1 -22h-90q4 180 76 255zM203 503q44 46 103 46
q50 0 87 -27l219 -162q31 -23 65 -23q89 0 89 126q0 16 -2 31h88q1 -15 1 -30q0 -91 -43 -172q-52 -96 -136 -96q-59 0 -129 54l-180 139q-30 29 -59 29q-44 0 -70 -55q-20 -43 -20 -93q0 -11 1 -22h-90q4 180 76 255z" />
    <glyph glyph-name="approxequal" unicode="&#x22f2;" horiz-adv-x="981" 
d="M203 851q44 46 103 46q50 0 87 -27l219 -161q31 -23 65 -23q89 0 89 125q0 16 -2 31h88q1 -15 1 -29q0 -92 -43 -172q-52 -97 -136 -97q-59 0 -129 54l-180 139q-30 29 -59 29q-44 0 -70 -55q-20 -43 -20 -93q0 -11 1 -22h-90q4 180 76 255zM203 503q44 46 103 46
q50 0 87 -27l219 -162q31 -23 65 -23q89 0 89 126q0 16 -2 31h88q1 -15 1 -30q0 -91 -43 -172q-52 -96 -136 -96q-59 0 -129 54l-180 139q-30 29 -59 29q-44 0 -70 -55q-20 -43 -20 -93q0 -11 1 -22h-90q4 180 76 255z" />
    <glyph glyph-name="Delta" unicode="&#x394;" horiz-adv-x="1253" 
d="M855 100l-194 959l-650 -959h844zM-145 0l954 1409l278 -1409h-1232z" />
    <glyph glyph-name="Delta" unicode="&#x2206;" horiz-adv-x="1253" 
d="M855 100l-194 959l-650 -959h844zM-145 0l954 1409l278 -1409h-1232z" />
    <glyph glyph-name="guillemotleft" unicode="&#xab;" 
d="M484 647l313 250l-37 -172l-207 -168l136 -168l-37 -172l-206 252zM144 647l317 250l-37 -172l-215 -168l144 -168l-37 -172l-210 252z" />
    <glyph glyph-name="guillemotright" unicode="&#xbb;" 
d="M535 897l203 -250l-38 -178l-312 -252l37 172l216 168l-143 168zM205 897l193 -250l-38 -178l-308 -252l37 172l220 168l-141 168z" />
    <glyph glyph-name="ellipsis" unicode="&#x2026;" horiz-adv-x="1679" 
d="M1374 213l-45 -213h-174l45 213h174zM815 213l-45 -213h-176l45 213h176zM256 213l-45 -213h-176l45 213h176z" />
    <glyph glyph-name="nonbreakingspace" unicode="&#xa0;" horiz-adv-x="467" 
 />
    <glyph glyph-name="endash" unicode="&#x2013;" 
d="M-57 512l27 129h951l-28 -129h-950z" />
    <glyph glyph-name="emdash" unicode="&#x2014;" horiz-adv-x="1679" 
d="M1660 641l-27 -129h-1696l27 129h1696z" />
    <glyph glyph-name="quotedblleft" unicode="&#x201c;" horiz-adv-x="559" 
d="M653 1450l-17 -82q-104 -49 -123 -213h75l-45 -215h-154l46 217q40 188 146 258q20 13 72 35zM389 1450l-18 -84q-105 -49 -125 -211h78l-45 -215h-156l46 217q41 191 150 260q19 12 70 33z" />
    <glyph glyph-name="quotedblright" unicode="&#x201d;" horiz-adv-x="559" 
d="M658 1450l-44 -211q-20 -95 -70 -167q-60 -87 -144 -97l17 80q83 12 119 184h-80l45 211h157zM232 1450h158l-45 -211q-52 -245 -214 -264l17 80q86 12 122 184h-82z" />
    <glyph glyph-name="quoteleft" unicode="&#x2018;" horiz-adv-x="373" 
d="M417 1450l-18 -84q-106 -49 -125 -211h78l-46 -215h-155l46 217q41 192 149 260q17 10 71 33z" />
    <glyph glyph-name="quoteright" unicode="&#x2019;" horiz-adv-x="373" 
d="M158 975l17 80q83 12 119 184h-80l45 211h158l-45 -211q-21 -98 -69 -167q-60 -87 -145 -97z" />
    <glyph glyph-name="divide" unicode="&#xf7;" horiz-adv-x="981" 
d="M336 971h174v-213h-174v213zM336 193h174v-213h-174v213zM16 403v144h813v-144h-813z" />
    <glyph glyph-name="currency" unicode="&#xa4;" 
d="M831 989l-98 -112q50 -85 50 -189q0 -71 -56 -182l96 -117l-98 -92l-88 92q-87 -68 -164 -68q-68 0 -160 52l-92 -84l-92 100l84 105q-56 84 -56 201q0 125 64 190l-98 123l90 96l98 -100q96 56 165 56q67 0 163 -56l94 90zM639 696q0 84 -45 137q-48 56 -131 56
q-82 0 -127 -60q-41 -54 -41 -139q0 -199 180 -199q77 0 123 66q41 58 41 139z" />
    <glyph glyph-name="quotedblbase" unicode="&#x201e;" horiz-adv-x="559" 
d="M391 211l-45 -211q-21 -98 -69 -167q-60 -87 -145 -97l17 80q84 12 119 184h-80l45 211h158zM-33 211h158l-45 -211q-21 -98 -69 -167q-60 -87 -145 -97l17 80q83 12 119 184h-80z" />
    <glyph glyph-name="Acyrillic" horiz-adv-x="1120" 
d="M721 606l-42 654l-339 -654h381zM-129 0l762 1493h192l113 -1493h-176l-30 459h-460l-233 -459h-168z" />
    <glyph glyph-name="BEcyrillic" horiz-adv-x="1120" 
d="M558 150q121 0 204 116q75 105 75 229q0 99 -76 156q-69 51 -171 51h-308l-117 -552h393zM578 0h-603l318 1493h850l-33 -152h-692l-104 -489h324q157 0 255.5 -96t98.5 -253q0 -185 -111 -336q-123 -167 -303 -167z" />
    <glyph glyph-name="VEcyrillic" horiz-adv-x="1120" 
d="M558 150q118 0 203 125q76 112 76 237q0 190 -247 190h-308l-117 -552h393zM638 852q130 0 208 93q73 88 73 220q0 85 -55 133q-51 45 -138 45h-307l-105 -491h324zM293 1493h481q139 0 224.5 -88.5t85.5 -228.5q0 -123 -64.5 -228t-173.5 -157q68 -33 101 -83
q47 -72 47 -206q0 -174 -110 -328q-124 -174 -306 -174h-603z" />
    <glyph glyph-name="GEcyrillic" horiz-adv-x="1001" 
d="M-6 0l317 1493h821l-31 -150h-664l-285 -1343h-158z" />
    <glyph glyph-name="DEcyrillic" horiz-adv-x="1247" 
d="M1072 1343h-422q-57 -266 -184 -615q-141 -386 -264 -578h616zM973 -346h-158l74 346h-830l-73 -346h-158l105 496h103q147 228 295 651q128 365 197 692h733l-285 -1343h102z" />
    <glyph glyph-name="IEcyrillic" horiz-adv-x="1120" 
d="M1161 1493l-32 -150h-692l-104 -491h665l-32 -150h-665l-118 -552h721l-32 -150h-878l317 1493h850z" />
    <glyph glyph-name="ZHEcyrillic" horiz-adv-x="1827" 
d="M1630 0h-185l-346 702h-123l-149 -702h-158l149 702h-112l-645 -702h-205l733 801l-379 692h170l346 -641h124l136 641h158l-136 -641h115l617 641h191l-692 -720z" />
    <glyph glyph-name="ZEcyrillic" horiz-adv-x="1096" 
d="M417 102q163 0 273 127q106 122 106 287q0 193 -244 193q-26 0 -73 -4l32 147q193 0 284 70q104 79 104 266q0 186 -210 186q-121 0 -231 -113q-102 -105 -128 -231l-147 2q44 212 187 347q152 145 361 145q151 0 241.5 -90.5t90.5 -241.5q0 -138 -58 -235
q-52 -86 -172 -171q128 -78 128 -266q0 -233 -150 -398q-154 -171 -385 -171q-183 0 -294 107.5t-111 289.5q0 47 7 94h150q-3 -24 -3 -49q0 -122 58 -202q66 -89 184 -89z" />
    <glyph glyph-name="IIcyrillic" horiz-adv-x="1212" 
d="M139 0h-157l317 1493h158l-254 -1194l880 1194h158l-317 -1493h-158l254 1194z" />
    <glyph glyph-name="IIshortcyrillic" horiz-adv-x="1212" 
d="M1176 1855q-63 -227 -349 -227q-116 0 -193 37q-102 50 -102 153q0 18 2 37h179v-14q0 -110 116 -110q126 0 168 124h179zM924 0h-158l254 1194l-881 -1194h-157l317 1493h158l-254 -1194l880 1194h158z" />
    <glyph glyph-name="KAcyrillic" horiz-adv-x="1120" 
d="M131 0h-158l317 1493h158l-136 -641h94l650 641l186 -1l-725 -721l421 -771h-179l-379 702h-100z" />
    <glyph glyph-name="ELcyrillic" horiz-adv-x="1227" 
d="M578 1343l-182 -860q-50 -238 -123 -356q-98 -160 -266 -160q-99 0 -131 45l29 138q47 -41 106 -41q49 0 76 20q90 68 177 475l189 889h802l-317 -1493h-158l286 1343h-488z" />
    <glyph glyph-name="EMcyrillic" horiz-adv-x="1399" 
d="M387 1212l-258 -1212h-162l318 1493h225l82 -1270l622 1270h224l-318 -1493h-162l258 1212l-591 -1212h-162z" />
    <glyph glyph-name="ENcyrillic" horiz-adv-x="1212" 
d="M289 702l-150 -702h-157l317 1493h158l-137 -641h627l136 641h158l-317 -1493h-158l149 702h-626z" />
    <glyph glyph-name="Ocyrillic" horiz-adv-x="1307" 
d="M199 526q0 -181 68 -290q82 -132 253 -132q264 0 438 301q149 258 149 544q0 179 -68 287q-82 130 -251 130q-264 0 -439 -299q-150 -257 -150 -541zM487 -47q-229 0 -348 174q-104 151 -104 390q0 360 207 662q232 339 578 339q228 0 347 -174q102 -150 102 -391
q0 -360 -206 -662q-230 -338 -576 -338z" />
    <glyph glyph-name="PEcyrillic" horiz-adv-x="1212" 
d="M425 1343l-286 -1343h-157l317 1493h942l-317 -1493h-158l286 1343h-627z" />
    <glyph glyph-name="ERcyrillic" horiz-adv-x="1120" 
d="M721 782q114 0 179 129q53 105 53 230q0 78 -41 136q-46 66 -121 66h-352l-119 -561h401zM825 1493q141 0 220 -83q76 -81 76 -223q0 -228 -98 -378q-115 -176 -331 -176h-404l-134 -633h-158l317 1493h512z" />
    <glyph glyph-name="EScyrillic" horiz-adv-x="1212" 
d="M755 1366q-249 0 -409 -324q-132 -268 -132 -547q0 -391 273 -391q153 0 282 152q98 115 164 291h162q-98 -277 -274 -441q-71 -67 -175 -110t-199 -43q-210 0 -312 165q-84 136 -84 359q0 353 185 671q215 370 543 370q88 0 174 -41q91 -43 136 -113q78 -119 87 -332
h-164q-33 334 -257 334z" />
    <glyph glyph-name="TEcyrillic" horiz-adv-x="1026" 
d="M163 1343l31 150h961l-32 -150h-399l-286 -1343h-157l285 1343h-403z" />
    <glyph glyph-name="Ucyrillic" horiz-adv-x="1120" 
d="M221 135q111 0 188 122q25 40 25 96q0 31 -8 71l-215 1069h168l191 -983l546 983h168l-663 -1184q-184 -329 -419 -329q-106 0 -171 49l33 157q48 -51 157 -51z" />
    <glyph glyph-name="EFcyrillic" horiz-adv-x="1440" 
d="M46 609q0 303 214 528q217 229 518 229l27 127h157l-27 -127q207 0 338 -150q126 -144 126 -354q0 -296 -208 -522q-217 -236 -524 -236l-22 -104h-158l23 104q-206 0 -338 152q-126 145 -126 353zM751 1241q-208 0 -379 -207q-162 -196 -162 -410q0 -157 82 -270
q91 -125 244 -125zM1235 846q0 159 -82 271q-91 124 -244 124l-215 -1012q208 0 379 207q162 197 162 410z" />
    <glyph glyph-name="KHAcyrillic" horiz-adv-x="1120" 
d="M922 0h-185l-196 608l-467 -608h-195l593 766l-245 727h181l191 -581l441 581h193l-572 -737z" />
    <glyph glyph-name="TSEcyrillic" horiz-adv-x="1212" 
d="M-18 0l317 1493h158l-286 -1343h627l285 1343h158l-286 -1343h97l-106 -496h-157l73 346h-880z" />
    <glyph glyph-name="CHEcyrillic" horiz-adv-x="1171" 
d="M579 729q180 0 310 41l153 723h158l-317 -1493h-158l132 621q-130 -41 -312 -41q-361 0 -361 287q0 87 35 251l80 375h158l-96 -449q-14 -65 -14 -116q0 -199 232 -199z" />
    <glyph glyph-name="SHAcyrillic" horiz-adv-x="1802" 
d="M851 150h524l286 1343h158l-318 -1493h-1519l317 1493h158l-286 -1343h524l286 1343h156z" />
    <glyph glyph-name="SHCHAcyrillic" horiz-adv-x="1802" 
d="M-18 0l317 1493h158l-286 -1343h524l286 1343h156l-286 -1343h524l286 1343h158l-286 -1343h86l-105 -496h-158l74 346h-1448z" />
    <glyph glyph-name="Hardsigncyrillic" horiz-adv-x="1384" 
d="M1278 504q0 -195 -115 -344q-123 -160 -305 -160h-586l282 1323h-404l36 170h561l-136 -641h307q157 0 258.5 -95.5t101.5 -252.5zM1117 497q0 101 -75 156q-67 49 -172 49h-291l-117 -552h377q122 0 204 116q74 105 74 231z" />
    <glyph glyph-name="YERIcyrillic" horiz-adv-x="1503" 
d="M1530 1493l-318 -1493h-157l317 1493h158zM542 150q122 0 204 116q74 105 74 231q0 101 -75 156q-67 49 -172 49h-291l-117 -552h377zM314 852h307q157 0 258.5 -95.5t101.5 -252.5q0 -195 -115 -344q-123 -160 -305 -160h-586l318 1493h157z" />
    <glyph glyph-name="Softsigncyrillic" horiz-adv-x="1104" 
d="M542 150q122 0 204 116q74 105 74 231q0 101 -75 156q-67 49 -172 49h-291l-117 -552h377zM314 852h307q157 0 258.5 -95.5t101.5 -252.5q0 -195 -115 -344q-123 -160 -305 -160h-586l318 1493h157z" />
    <glyph glyph-name="Ereversedcyrillic" horiz-adv-x="1212" 
d="M725 1366q-135 0 -252 -107q-107 -98 -147 -227h-164q70 205 214 337q163 149 368 149q211 0 323 -175q94 -147 94 -369q0 -354 -176 -661q-207 -360 -532 -360q-210 0 -322 160q-96 137 -96 354v25h164q-1 -154 51 -256q67 -132 206 -132q188 0 339 212q122 171 167 386
h-450l32 150h446q7 61 7 120q0 394 -272 394z" />
    <glyph glyph-name="IUcyrillic" horiz-adv-x="1798" 
d="M691 526q0 -181 68 -290q82 -132 252 -132q265 0 439 301q149 258 149 544q0 179 -68 287q-82 130 -251 130q-264 0 -439 -299q-150 -257 -150 -541zM289 702l-150 -702h-157l317 1493h158l-137 -641h265q86 277 260 456q204 210 467 210q229 0 346 -164
q103 -143 103 -381q0 -363 -206 -672q-232 -348 -576 -348q-232 0 -348 172q-100 147 -100 390q0 92 16 187h-258z" />
    <glyph glyph-name="IAcyrillic" horiz-adv-x="1171" 
d="M535 791h354l117 552h-352q-140 0 -222 -114q-74 -101 -74 -246q0 -192 177 -192zM688 1493h508l-317 -1493h-158l136 641h-233l-556 -641h-183l567 653q-119 20 -191 121q-66 94 -66 219q0 224 134.5 362t358.5 138z" />
    <glyph glyph-name="afii10050" horiz-adv-x="1001" 
d="M1101 1343h-664l-285 -1343h-158l317 1493h664l78 367h157z" />
    <glyph glyph-name="Icyrillic" horiz-adv-x="467" 
d="M485 1493l-317 -1493h-158l318 1493h157z" />
    <glyph glyph-name="DJEcyrillic" horiz-adv-x="1462" 
d="M840 110q127 0 198 123q43 75 77 236q17 80 17 115q0 116 -68 180q-67 61 -184 61h-266l-176 -825h-157l285 1343h-403l31 150h961l-32 -150h-399l-80 -374h266q174 0 276 -86q109 -92 109 -263q0 -47 -10 -94l-37 -174q-35 -164 -138 -277q-116 -127 -269 -127
q-122 0 -204 54l121 133q33 -25 82 -25z" />
    <glyph glyph-name="djecyrillic" 
d="M644 625q0 145 -149 145q-96 0 -182 -81q-82 -78 -103 -175l-110 -514h-141l233 1098h-112l29 137h113l54 258h142l-55 -258h395l-29 -137h-395l-76 -357q146 160 304 160q102 0 167.5 -61t65.5 -163q0 -32 -7 -65l-153 -716q-17 -78 -74 -136t-134 -73q-35 -7 -79 -7
q-24 0 -47 3l28 131q34 4 84 10q70 9 87 90l135 635q9 42 9 76z" />
    <glyph glyph-name="GJEcyrillic" horiz-adv-x="1001" 
d="M801 1583h-102l228 303h189zM-6 0l317 1493h821l-31 -150h-664l-285 -1343h-158z" />
    <glyph glyph-name="gjecyrillic" horiz-adv-x="719" 
d="M544 1212h-102l228 304h189zM719 944h-418l-201 -944h-141l229 1075h559z" />
    <glyph glyph-name="icyrillic" horiz-adv-x="373" 
d="M225 1280l45 213h142l-46 -213h-141zM-47 0l228 1075h142l-229 -1075h-141z" />
    <glyph glyph-name="afii10098" horiz-adv-x="719" 
d="M719 944h-418l-201 -944h-141l229 1075h417l63 295h141z" />
    <glyph glyph-name="JEcyrillic" horiz-adv-x="840" 
d="M88 253q0 -65 37.5 -107t101.5 -42q124 0 194 124q43 76 77 235l219 1030h157l-242 -1141q-35 -164 -134 -274q-113 -125 -266 -125q-137 0 -217 67q-86 72 -86 206q0 47 43 249h158q-42 -196 -42 -222z" />
    <glyph glyph-name="Ecyrillic" horiz-adv-x="1212" 
d="M265 852h447l-32 -150h-451q-20 -95 -20 -195q0 -163 54 -267q70 -136 218 -136q139 0 262 131q95 102 160 257h164q-97 -243 -252 -386q-72 -67 -174 -109q-105 -44 -200 -44q-208 0 -312 175q-85 143 -85 369q0 347 187 660q216 361 542 361q88 0 173 -41
q91 -43 136 -113q79 -122 88 -332h-164q-33 334 -257 334q-176 0 -315 -176q-105 -133 -169 -338z" />
    <glyph glyph-name="ecyrillic" horiz-adv-x="840" 
d="M183 621h334l-28 -132h-335q-12 -73 -12 -135q0 -260 167 -260q180 0 278 277h135q-45 -183 -160 -295q-127 -123 -307 -123q-145 0 -215 111q-58 92 -58 245q0 106 28 236q46 215 168 371q148 190 344 190q283 0 283 -286q0 -51 -10 -107h-139q5 34 5 66q0 190 -166 190
q-101 0 -198 -129q-77 -102 -114 -219z" />
    <glyph glyph-name="YIcyrillic" horiz-adv-x="467" 
d="M661 1647h-155l44 211h156zM368 1647h-153l45 211h153zM485 1493l-317 -1493h-158l318 1493h157z" />
    <glyph glyph-name="yicyrillic" horiz-adv-x="467" 
d="M370 1075l-229 -1075h-141l229 1075h141zM558 1239h-155l44 211h156zM265 1239h-153l45 211h153z" />
    <glyph glyph-name="LJEcyrillic" horiz-adv-x="1796" 
d="M1683 504q0 -193 -111 -342q-121 -162 -308 -162h-525l286 1343h-447l-187 -880q-105 -496 -384 -496q-99 0 -131 45l29 138q47 -41 106 -41q45 0 74 24q96 80 192 533l176 827h761l-136 -641h246q157 0 258 -96t101 -252zM1523 497q0 100 -76 156q-67 49 -171 49h-230
l-117 -552h315q130 0 209 112q70 100 70 235z" />
    <glyph glyph-name="ljecyrillic" horiz-adv-x="1362" 
d="M1228 366q0 -140 -93 -248q-101 -118 -252 -118h-379l200 944h-299l-138 -653q-25 -119 -92 -212q-82 -114 -189 -114q-72 0 -115 33l24 117q34 -31 78 -31q109 0 157 227l162 764h582l-94 -442h190q118 0 188 -73.5t70 -193.5zM1073 358q0 64 -42 107t-106 43h-172
l-81 -383h192q91 0 152 72q57 68 57 161z" />
    <glyph glyph-name="NJEcyrillic" horiz-adv-x="1796" 
d="M1683 504q0 -193 -111 -342q-121 -162 -308 -162h-525l145 682h-600l-145 -682h-157l317 1493h158l-137 -641h600l137 641h157l-136 -641h246q157 0 258 -96t101 -252zM1523 495q0 98 -81 147q-66 40 -171 40h-229l-109 -512h316q126 0 203 102q71 93 71 223z" />
    <glyph glyph-name="njecyrillic" horiz-adv-x="1362" 
d="M1228 366q0 -140 -93 -248q-101 -118 -252 -118h-379l103 487h-403l-104 -487h-141l229 1075h141l-94 -442h403l94 442h142l-94 -442h190q118 0 188 -73.5t70 -193.5zM1073 372q0 115 -152 115h-172l-73 -342h193q90 0 148 70q56 66 56 157z" />
    <glyph glyph-name="jecyrillic" horiz-adv-x="373" 
d="M188 1075h141l-279 -1311q-22 -105 -105 -162q-76 -52 -187 -52q-21 0 -42 1l27 125q85 10 106 19q50 21 63 82zM418 1493l-46 -213h-141l45 213h142z" />
    <glyph glyph-name="DZEcyrillic" horiz-adv-x="1120" 
d="M670 1368q-129 0 -227 -92q-101 -94 -101 -222q0 -135 173 -194l294 -100q85 -29 133 -117q42 -78 42 -175q0 -227 -168 -374q-160 -141 -390 -141q-189 0 -299 87q-122 96 -122 280q0 72 18 153h147q-12 -59 -12 -112q0 -255 272 -255q154 0 266 95q118 100 118 251
q0 119 -101 169q-59 29 -155 60q-71 23 -159 52q-217 83 -217 295q0 224 148 359q143 131 369 131q388 0 388 -337q0 -65 -17 -124h-153q13 49 13 90q0 109 -78 168q-70 53 -182 53z" />
    <glyph glyph-name="TSHEcyrillic" horiz-adv-x="1462" 
d="M281 0l285 1343h-403l31 150h961l-32 -150h-399l-80 -374h266q174 0 276 -86q109 -92 109 -263q0 -47 -10 -94l-111 -526h-158l109 514q7 33 7 70q0 116 -68 180q-67 61 -184 61h-266l-176 -825h-157z" />
    <glyph glyph-name="tshecyrillic" 
d="M258 741q146 160 304 160q102 0 167.5 -61t65.5 -163q0 -32 -7 -65l-131 -612h-139l117 549q9 42 9 76q0 145 -149 145q-97 0 -183 -81q-81 -77 -102 -175l-110 -514h-141l233 1098h-112l29 137h113l54 258h142l-55 -258h395l-29 -137h-395z" />
    <glyph glyph-name="KJEcyrillic" horiz-adv-x="1120" 
d="M801 1583h-102l228 303h189zM131 0h-158l317 1493h158l-136 -641h94l650 641l186 -1l-725 -721l421 -771h-179l-379 702h-100z" />
    <glyph glyph-name="kjecyrillic" 
d="M544 1212h-102l228 304h189zM78 0h-140l228 1075h140l-96 -454h63l420 454h159l-463 -509l285 -566h-146l-250 489h-96z" />
    <glyph glyph-name="dzecyrillic" horiz-adv-x="840" 
d="M273 78q111 0 184 60q79 64 79 172q0 90 -67 114q-172 61 -272 108q-119 56 -119 208q0 171 119 271q112 95 286 95q267 0 267 -234q0 -45 -10 -98h-139q8 36 8 65q0 136 -166 136q-82 0 -151.5 -67.5t-69.5 -148.5q0 -96 120 -142q49 -19 222 -81q119 -64 119 -197
q0 -178 -119 -285q-115 -103 -294 -103q-317 0 -317 247q0 53 14 119h133q-3 -24 -3 -48q0 -191 176 -191z" />
    <glyph glyph-name="Ushortcyrillic" horiz-adv-x="1120" 
d="M1172 1855q-64 -227 -349 -227q-117 0 -193 37q-102 49 -102 153q0 18 2 37h179v-14q0 -110 116 -110q126 0 168 124h179zM221 135q111 0 188 122q25 40 25 96q0 31 -8 71l-215 1069h168l191 -983l546 983h168l-663 -1184q-184 -329 -419 -329q-106 0 -171 49l33 157
q48 -51 157 -51z" />
    <glyph glyph-name="ushortcyrillic" horiz-adv-x="840" 
d="M897 1505q-64 -227 -349 -227q-116 0 -194 37q-102 49 -102 153q0 18 3 37h179v-14q0 -111 115 -111q127 0 169 125h179zM-82 -449q-49 0 -77 27l27 129q37 -19 73 -19q66 0 132 126l89 170l-58 1091h149l43 -828l426 828h152l-681 -1323q-103 -201 -275 -201z" />
    <glyph glyph-name="DZHEcyrillic" horiz-adv-x="1212" 
d="M-35 0l318 1493h157l-285 -1343h626l286 1343h158l-318 -1493h-387l-79 -375h-158l79 375h-397z" />
    <glyph glyph-name="dzhecyrillic" 
d="M-41 0l229 1075h141l-201 -944h418l201 944h141l-229 -1075h-276l-57 -270h-142l58 270h-283z" />
    <glyph glyph-name="numero" horiz-adv-x="1845" 
d="M1614 760q0 147 -106 147q-98 0 -158 -122q-49 -100 -49 -208q0 -155 103 -155q97 0 159 126q51 103 51 212zM1583 0h-534l27 127h534zM1536 1038q210 0 210 -240q0 -181 -92 -332q-106 -175 -277 -175q-104 0 -159 74q-49 65 -49 173q0 181 91 329q105 171 276 171z
M391 1236l-264 -1236h-158l318 1493h186l353 -1238l261 1238h158l-317 -1493h-180z" />
    <glyph glyph-name="IOcyrillic" horiz-adv-x="1120" 
d="M1005 1647h-155l45 211h155zM712 1647h-153l45 211h153zM1161 1493l-32 -150h-692l-104 -491h665l-32 -150h-665l-118 -552h721l-32 -150h-878l317 1493h850z" />
    <glyph glyph-name="iocyrillic" 
d="M800 1239h-154l45 211h154zM509 1239h-156l45 211h156zM521 977q-216 0 -330 -356h492q15 69 15 129q0 227 -177 227zM325 84q101 0 177 78q48 49 110 166h144q-142 -375 -457 -375q-303 0 -303 353q0 280 138 519q162 281 423 281q286 0 286 -358q0 -128 -34 -259h-646
q-21 -95 -21 -145q0 -104 39 -174q48 -86 144 -86z" />
    <glyph glyph-name="iacyrillic" horiz-adv-x="909" 
d="M256 724q0 -56 38 -93t94 -37h228l75 352h-226q-84 0 -146.5 -68.5t-62.5 -153.5zM472 1075h387l-228 -1075h-142l100 467h-135l-417 -467h-174l421 469q-189 59 -189 231t102.5 273.5t274.5 101.5z" />
    <glyph glyph-name="acyrillic" 
d="M110 221q0 -60 33 -99q35 -42 93 -42q162 0 281 144q35 42 40 67l55 256q-58 -25 -196 -49q-118 -21 -156 -37q-70 -30 -111 -107q-39 -72 -39 -133zM758 80l-23 -109l-122 -18q-92 30 -92 131q0 12 2 25q-199 -156 -328 -156q-236 0 -236 217q0 141 63 244
q69 112 197 155q67 23 174 36q112 14 165 28q73 19 87 82q28 123 28 134q0 126 -185 126q-95 0 -161 -65q-60 -59 -81 -156h-133l11 53q28 133 150 219q115 80 256 80q110 0 194 -40q108 -51 108 -149q0 -17 -4 -36l-157 -742q-1 -5 -1 -10q0 -54 61 -54q14 0 27 5z" />
    <glyph glyph-name="becyrillic" 
d="M982 1499q-21 -103 -106 -155q-60 -37 -183 -60q-282 -53 -396 -303l3 -4q122 104 255 104q148 0 220 -109q61 -93 61 -248q0 -269 -121 -494q-149 -277 -403 -277q-160 0 -243 98q-78 91 -78 253q0 208 88 476q91 279 217 430q118 142 266 181q21 5 114 24q68 14 90 22
q54 21 63 62h153zM684 675q0 259 -191 259q-167 0 -268 -206q-82 -168 -82 -354q0 -270 180 -270q160 0 269 214q92 180 92 357z" />
    <glyph glyph-name="vecyrillic" 
d="M416 125q90 0 148 76q53 70 53 163q0 144 -183 144h-226l-81 -383h289zM490 629q85 0 141 57.5t56 143.5q0 122 -155 122h-229l-69 -323h256zM188 1075h432q101 0 159.5 -59.5t58.5 -160.5q0 -86 -52 -169q-55 -88 -135 -108q61 -14 95 -77q29 -55 29 -123
q0 -136 -82 -249q-94 -129 -238 -129h-496z" />
    <glyph glyph-name="gecyrillic" horiz-adv-x="719" 
d="M719 944h-418l-201 -944h-141l229 1075h559z" />
    <glyph glyph-name="decyrillic" horiz-adv-x="975" 
d="M735 944h-268q-109 -519 -283 -813h378zM353 1075h551l-200 -944h98l-86 -405h-141l58 274h-588l-58 -274h-142l87 405h94q120 181 206 456q57 183 121 488z" />
    <glyph glyph-name="iecyrillic" 
d="M521 977q-216 0 -330 -356h492q15 69 15 129q0 227 -177 227zM325 84q101 0 177 78q48 49 110 166h144q-142 -375 -457 -375q-303 0 -303 353q0 280 138 519q162 281 423 281q286 0 286 -358q0 -128 -34 -259h-646q-21 -95 -21 -145q0 -104 39 -174q48 -86 144 -86z" />
    <glyph glyph-name="zhecyrillic" horiz-adv-x="1417" 
d="M1221 0h-146l-251 489h-96l-104 -489h-139l104 489h-86l-458 -489h-166l543 592l-246 483h140l228 -454h73l96 454h139l-96 -454h64l419 454h160l-464 -509z" />
    <glyph glyph-name="zecyrillic" horiz-adv-x="834" 
d="M260 -47q-136 0 -216 68q-86 73 -86 206q0 48 9 90h133q-3 -15 -3 -35q0 -84 44 -141q48 -63 129 -63q117 0 191 77.5t74 194.5q0 154 -183 154q-30 0 -64 -4l27 125q14 -1 27 -1q195 0 241 210q3 14 3 31q0 120 -139 120q-172 0 -217 -211h-139q70 332 398 332
q113 0 186.5 -66t73.5 -178q0 -98 -53 -172.5t-146 -103.5q151 -19 151 -215q0 -198 -123 -310q-118 -108 -318 -108z" />
    <glyph glyph-name="iicyrillic" 
d="M747 1075h141l-229 -1075h-141l172 809l-590 -809h-141l229 1075h141l-169 -794z" />
    <glyph glyph-name="iishortcyrillic" 
d="M942 1505q-64 -227 -349 -227q-116 0 -194 37q-102 49 -102 153q0 18 3 37h179v-14q0 -111 115 -111q127 0 169 125h179zM659 0h-141l172 809l-590 -809h-141l229 1075h141l-169 -794l587 794h141z" />
    <glyph glyph-name="kacyrillic" horiz-adv-x="840" 
d="M78 0h-140l228 1075h140l-96 -454h63l420 454h159l-463 -509l285 -566h-146l-250 489h-96z" />
    <glyph glyph-name="elcyrillic" horiz-adv-x="952" 
d="M-14 -35q-71 0 -115 33l24 117q34 -31 78 -31q109 0 157 227l162 764h623l-229 -1075h-141l200 944h-340l-138 -653q-25 -119 -92 -212q-82 -114 -189 -114z" />
    <glyph glyph-name="emcyrillic" horiz-adv-x="1149" 
d="M862 0h-141l158 745l-400 -745h-139l-81 745l-159 -745h-141l229 1075h168l87 -910l480 910h168z" />
    <glyph glyph-name="encyrillic" 
d="M650 621l97 454h141l-229 -1075h-141l104 489h-418l-104 -489h-141l229 1075h141l-97 -454h418z" />
    <glyph glyph-name="ocyrillic" 
d="M685 690q0 111 -34 185q-45 100 -143 100q-169 0 -277 -231q-89 -190 -89 -380q0 -280 177 -280q159 0 271 227q95 193 95 379zM536 1106q156 0 234 -115q66 -98 66 -262q0 -280 -131 -507q-155 -269 -414 -269q-157 0 -234 115q-66 99 -66 263q0 277 131 505
q155 270 414 270z" />
    <glyph glyph-name="pecyrillic" 
d="M659 0h-141l201 944h-418l-201 -944h-141l229 1075h700z" />
    <glyph glyph-name="ercyrillic" 
d="M169 360q0 -258 174 -258q166 0 270 232q84 187 84 376q0 265 -174 265q-119 0 -220 -153q-80 -121 -110 -263q-24 -112 -24 -199zM161 1075h123l-29 -135q123 166 308 166q155 0 230 -126q62 -102 62 -267q0 -261 -130 -491q-152 -269 -389 -269q-190 0 -238 162
l-120 -564h-141z" />
    <glyph glyph-name="escyrillic" horiz-adv-x="840" 
d="M254 -47q-144 0 -214 110q-58 91 -58 246q0 111 27 236q46 214 169 372q147 189 344 189q283 0 283 -286q0 -51 -10 -107h-140q6 35 6 67q0 195 -165 195q-123 0 -224 -162q-78 -125 -111 -278q-24 -111 -24 -201q0 -250 170 -250q178 0 280 287h135q-45 -183 -161 -295
q-127 -123 -307 -123z" />
    <glyph glyph-name="tecyrillic" horiz-adv-x="840" 
d="M858 944h-313l-201 -944h-141l200 944h-313l28 131h768z" />
    <glyph glyph-name="ucyrillic" horiz-adv-x="840" 
d="M-82 -449q-49 0 -77 27l27 129q37 -19 73 -19q66 0 132 126l89 170l-58 1091h149l43 -828l426 828h152l-681 -1323q-103 -201 -275 -201z" />
    <glyph glyph-name="efcyrillic" horiz-adv-x="1444" 
d="M852 -47q-72 0 -129.5 45.5t-69.5 116.5l-120 -564h-141l120 564q-93 -162 -248 -162q-142 0 -217 124q-62 103 -62 256q0 261 121 493q146 280 383 280q79 0 133.5 -43.5t65.5 -120.5l117 551h141l-117 -551q96 164 248 164q142 0 217 -126q61 -103 61 -257
q0 -261 -120 -491q-146 -279 -383 -279zM1205 685q0 269 -171 269q-125 0 -210 -100q-18 -21 -19 -27l-122 -571q-2 -11 14 -46q49 -106 157 -106q153 0 260 218q91 185 91 363zM663 827q-8 58 -64 94q-50 33 -111 33q-154 0 -261 -217q-90 -183 -90 -364q0 -269 170 -269
q113 0 208 113q25 30 27 39z" />
    <glyph glyph-name="khacyrillic" horiz-adv-x="840" 
d="M-129 0l426 551l-179 524h150l135 -387l301 387h157l-417 -530l183 -545h-148l-138 401l-310 -401h-160z" />
    <glyph glyph-name="tsecyrillic" 
d="M-41 0l229 1075h141l-201 -944h418l201 944h141l-201 -944h74l-86 -405h-141l58 274h-633z" />
    <glyph glyph-name="checyrillic" horiz-adv-x="924" 
d="M308 1075l-70 -330q-10 -47 -10 -83q0 -123 114 -123q156 0 300 90l94 446h142l-229 -1075h-141l107 504q-157 -101 -310 -101q-223 0 -223 209q0 61 21 160l64 303h141z" />
    <glyph glyph-name="shacyrillic" horiz-adv-x="1366" 
d="M188 1075h141l-201 -944h357l200 944h142l-201 -944h356l201 944h141l-228 -1075h-1137z" />
    <glyph glyph-name="shchacyrillic" horiz-adv-x="1366" 
d="M-41 0l229 1075h141l-201 -944h357l200 944h142l-201 -944h356l201 944h141l-200 -944h73l-86 -405h-141l58 274h-1069z" />
    <glyph glyph-name="hardsigncyrillic" horiz-adv-x="1034" 
d="M729 354q0 67 -40.5 110.5t-107.5 43.5h-213l-80 -375h234q91 0 150 66q57 63 57 155zM395 633h211q125 0 201.5 -72t76.5 -195q0 -145 -84 -248q-96 -118 -261 -118h-420l200 944h-253l27 131h396z" />
    <glyph glyph-name="yericyrillic" horiz-adv-x="1239" 
d="M813 0l229 1075h141l-229 -1075h-141zM362 133q91 0 150 66q57 63 57 155q0 154 -148 154h-213l-79 -375h233zM725 366q0 -141 -90 -248q-99 -118 -256 -118h-420l229 1075h141l-94 -442h211q128 0 203.5 -70t75.5 -197z" />
    <glyph glyph-name="softsigncyrillic" horiz-adv-x="870" 
d="M362 133q91 0 150 66q57 63 57 155q0 154 -148 154h-213l-79 -375h233zM725 366q0 -141 -90 -248q-99 -118 -256 -118h-420l229 1075h141l-94 -442h211q128 0 203.5 -70t75.5 -197z" />
    <glyph glyph-name="ereversedcyrillic" horiz-adv-x="840" 
d="M642 621q3 36 3 70q0 101 -34 177q-45 101 -133 101q-199 0 -270 -256h-139q42 174 150 278q119 115 290 115q150 0 229 -127q66 -107 66 -270q0 -254 -129 -484q-152 -272 -388 -272q-142 0 -221.5 81t-79.5 223q0 53 11 114h135q-2 -24 -2 -47q0 -232 162 -232
q120 0 215 145q69 104 109 252h-336l28 132h334z" />
    <glyph glyph-name="iucyrillic" horiz-adv-x="1335" 
d="M419 489h-215l-104 -489h-141l229 1075h141l-97 -454h217q59 205 171 331q136 154 326 154q156 0 234 -115q66 -98 66 -262q0 -279 -127 -507q-150 -269 -398 -269q-158 0 -241 111q-75 98 -75 261q0 77 14 164zM1094 681q0 273 -180 273q-169 0 -275 -216
q-87 -177 -87 -364q0 -270 181 -270q161 0 270 217q91 181 91 360z" />
    <glyph glyph-name="Euro" horiz-adv-x="1524" 
d="M1063 715h-1141l48 110h1139zM969 495h-1047l48 110h1047zM1188 149q-173 -149 -428 -149q-280 0 -470 190t-190 470t190 470t470 190t476 -196l-48 -111q-183 197 -428 197q-230 0 -390 -160t-160 -390t160 -390t390 -160q250 0 428 201v-162z" />
    <glyph glyph-name="acutecmb" horiz-adv-x="467" 
 />
    <glyph glyph-name="brevecmb" horiz-adv-x="467" 
 />
    <glyph glyph-name="dieresiscmb" horiz-adv-x="467" 
 />
    <glyph glyph-name="soliduslongoverlaycmb" horiz-adv-x="467" 
d="M628 1450l-715 -1493h-94l717 1493h92z" />
  </font>
</defs>
</svg>
