<?xml version="1.0" encoding="utf-8"?>
<!-- Generated by IcoMoon.io -->
<!DOCTYPE svg PUBLIC "-//W3C//DTD SVG 1.1//EN" "http://www.w3.org/Graphics/SVG/1.1/DTD/svg11.dtd">
<svg version="1.1" xmlns="http://www.w3.org/2000/svg" xmlns:xlink="http://www.w3.org/1999/xlink" width="46" height="46" viewBox="0 0 46 46">
<g id="icomoon-ignore">
</g>
<path d="M45.354 44.646c0 0-0.707 0.708-0.707 0.708s-21.647-21.647-21.647-21.647c0 0-21.646 21.647-21.646 21.647s-0.708-0.708-0.708-0.708c0 0 21.647-21.646 21.647-21.646s-21.647-21.646-21.647-21.646c0 0 0.708-0.708 0.708-0.708s21.646 21.647 21.646 21.647c0 0 21.647-21.647 21.647-21.647s0.707 0.708 0.707 0.708c0 0-21.647 21.646-21.647 21.646s21.647 21.646 21.647 21.646z" fill="#ececec"></path>
</svg>
